<svg id="Layer_1" data-name="Layer 1" xmlns="http://www.w3.org/2000/svg" viewBox="0 0 1920 1080"><defs><style>.cls-1{fill:#fff;}</style></defs><path class="cls-1" d="M310.55,387h58.1V688.42h-58.1ZM590.5,496q25.68,30.32,25.68,80.84,0,58.11-33.26,89.26-29.05,27-77,26.95-55.17,0-84.63-34.95-25.69-30.72-25.68-81.26,0-57.68,33.26-88.84,29.06-27.36,77.05-27.37Q561,460.63,590.5,496Zm-32,80.84c0-12.11-1.69-22.79-5-32.14A32.13,32.13,0,0,1,548.6,551a30.83,30.83,0,0,1-43.76,0,31.3,31.3,0,0,1-.1-43.64q-22.8.45-36.76,19.12-14.33,19.17-14.32,50.32,0,33.69,16,53,14.31,16.43,36.21,16.42,23.58,0,38.1-19.15T558.5,576.84ZM826.41,496q25.68,30.32,25.69,80.84,0,58.11-33.27,89.26-29,27-77.05,26.95-55.15,0-84.63-34.95-25.68-30.72-25.68-81.26,0-57.68,33.26-88.84,29.06-27.36,77-27.37Q796.94,460.63,826.41,496Zm-32,80.84c0-13-1.94-24.43-5.73-34.26a31.42,31.42,0,0,1-6.09,8.46,30.83,30.83,0,0,1-43.76,0,31.3,31.3,0,0,1-.16-43.58q-21.42,1.19-34.78,19.06-14.32,19.17-14.32,50.32,0,33.69,16,53,14.31,16.43,36.21,16.42,23.58,0,38.11-19.15T794.41,576.84Zm281.3-111.58h-66.1L936.77,552V387H878.66V688.42h58.11V615.16l22.73-25.27L1013,688.42h67.79L999.5,549.47ZM1238.23,563,1165,542.32q-20.21-5.48-20.21-16.85,0-19.35,33.26-19.37,22.74,0,32,5.69t9.69,19.16h58.94q-.42-29.9-24.42-48.85-27.78-21.47-75.79-21.47-39.57,0-64,16.84-27.78,19.8-27.78,56.42,0,22.33,12.63,35.37,9.68,10.53,36.21,18.53l69,21.05q19.37,5.91,19.37,18.11,0,20.63-43.37,20.63-25.69,0-35.16-4.63t-12-18.53h-57.68q1.66,35.79,26.1,51.79,24.84,16.85,82.11,16.84,46.74,0,71.58-19.37,26.52-21,26.52-55.15Q1282,575.17,1238.23,563Zm70,125.47h58.11V465.26h-58.11ZM1336.88,443A26.6,26.6,0,0,0,1363.83,416a26.77,26.77,0,0,0-7.79-19.37,25.72,25.72,0,0,0-19.16-8A27.31,27.31,0,0,0,1309.51,416a25.7,25.7,0,0,0,8,19.16A26.71,26.71,0,0,0,1336.88,443Zm255.24,81.68q8.85,23.58,8.84,56.84,0,4.21-.42,10.53H1450.65q1.26,27,8.42,38.31,12.21,18.54,38.32,18.53,32.41,0,43.36-27H1598q-9.69,32.85-37.69,52t-65.47,19.16q-51,0-78.32-34.1-24-29.9-24-78.74,0-59.37,31.16-91.79,27.36-27.8,72-27.79,34.11,0,59.79,16.84T1592.12,524.63Zm-51.79,29q-4.21-48.84-45-48.84-38.31,0-43.79,48.84Zm43.32-77.8H1585l1.59-1.24V461.86h4.53v-2.49h-11.94v2.49h4.48Zm21.73-16.51L1601,472l-4.13-12.63h-4.22v16.51h2.78V463.3h0l4.28,12.58H1602l4.48-12.58h0v12.58h1.34l1.54-1.24V459.37Z"/></svg>